Coordinates
version=1
nRows=5
nColumns=63
inDegrees=yes

Units are S.I. units (second, meters, Newtons, ...)
If the header above contains a line with 'inDegrees', this indicates whether rotational values are in degrees (yes) or radians (no).

endheader
time	pelvis_tilt	pelvis_list	pelvis_rotation	pelvis_tx	pelvis_ty	pelvis_tz	hip_flexion_r	hip_adduction_r	hip_rotation_r	knee_angle_r	knee_angle_r_beta	ankle_angle_r	subtalar_angle_r	mtp_angle_r	hip_flexion_l	hip_adduction_l	hip_rotation_l	knee_angle_l	knee_angle_l_beta	ankle_angle_l	subtalar_angle_l	mtp_angle_l	L5_S1_Flex_Ext	L5_S1_Lat_Bending	L5_S1_axial_rotation	L4_L5_Flex_Ext	L4_L5_Lat_Bending	L4_L5_axial_rotation	L3_L4_Flex_Ext	L3_L4_Lat_Bending	L3_L4_axial_rotation	L2_L3_Flex_Ext	L2_L3_Lat_Bending	L2_L3_axial_rotation	L1_L2_Flex_Ext	L1_L2_Lat_Bending	L1_L2_axial_rotation	L1_T12_Flex_Ext	L1_T12_Lat_Bending	L1_T12_axial_rotation	Abs_r3	Abs_r2	Abs_r1	Abs_t1	Abs_t2	neck_flexion	neck_bending	neck_rotation	arm_flex_r	arm_add_r	arm_rot_r	elbow_flex_r	pro_sup_r	wrist_flex_r	wrist_dev_r	arm_flex_l	arm_add_l	arm_rot_l	elbow_flex_l	pro_sup_l	wrist_flex_l	wrist_dev_l
     12.99200000	    -42.84319239	     -0.37150136	      4.01988867	     -0.23916681	      1.03869708	     -0.01586377	     76.20317388	     -9.99687376	     -7.10915650	     53.27352823	      0.92979847	      0.79954957	     -2.47960982	      0.00000000	    118.68981865	     -1.20279754	      3.02063528	    114.15119828	      1.99231426	     22.34958633	      4.71068548	      0.00000000	     -0.04688115	      0.01085049	     -1.13473716	     -0.08706299	      0.01443115	     -1.20565823	     -0.07702104	      0.02638188	     -1.20565823	     -0.05358047	      0.02638188	     -0.99289501	     -0.04353384	      0.02212632	     -0.92197394	     -0.02678789	      0.01680741	     -0.85105287	     -0.33486738	      0.12274292	     -6.31106764	      0.00000000	      0.00000000	     -0.00000000	      0.00000000	      0.00000000	     76.85858631	     -9.79022301	     31.18001195	     27.70438956	     34.27498548	      0.00000000	      5.00000014	     76.81835108	     -9.89563600	     26.53487726	     28.85247797	     41.60851350	      0.00000000	      5.00000014
     13.00000000	    -42.92838641	     -0.03497860	      3.94131119	     -0.24009841	      1.03900295	     -0.01577657	     76.61502445	    -10.03008749	     -6.46500715	     55.10514601	      0.96176623	      0.17059368	     -3.87165526	      0.00000000	    119.00468398	     -1.20420677	      2.22205224	    112.63384688	      1.96583148	     21.42842880	      2.56102356	      0.00000000	     -0.04678914	     -0.04129563	     -1.13678987	     -0.08689211	     -0.05492319	     -1.20783923	     -0.07686988	     -0.10040620	     -1.20783923	     -0.05347531	     -0.10040620	     -0.99469113	     -0.04344839	     -0.08421005	     -0.92364177	     -0.02673531	     -0.06396693	     -0.85259240	     -0.33421014	     -0.46714445	     -6.32248419	      0.00000000	      0.00000000	     -0.00000000	      0.00000000	      0.00000000	     76.82380770	     -9.75334327	     31.13232717	     27.70853612	     34.20937852	      0.00000000	      5.00000014	     76.84351019	     -9.74458379	     25.56902958	     28.90951676	     41.40466304	      0.00000000	      5.00000014
     13.00800000	    -43.02549967	     -0.13991422	      3.57827962	     -0.24104887	      1.03918857	     -0.01552941	     76.91852773	     -9.76445959	     -6.36296735	     56.85874033	      0.99237223	      0.48781484	     -4.06835290	      0.00000000	    119.26527955	     -1.28849589	      2.30520765	    111.09169950	      1.93891593	     21.35552781	      2.46168880	      0.00000000	     -0.04627623	     -0.03080592	     -1.07574375	     -0.08593959	     -0.04097188	     -1.14297773	     -0.07602722	     -0.07490152	     -1.14297773	     -0.05288910	     -0.07490152	     -0.94127578	     -0.04297211	     -0.06281944	     -0.87404180	     -0.02644224	     -0.04771837	     -0.80680781	     -0.33054648	     -0.34848276	     -5.98296401	      0.00000000	      0.00000000	     -0.00000000	      0.00000000	      0.00000000	     76.91704511	     -9.83360780	     31.11251597	     27.76074864	     34.19819545	      0.00000000	      5.00000014	     76.90776875	     -9.68937267	     25.47551551	     29.03268868	     41.38407626	      0.00000000	      5.00000014
     13.01700000	    -43.09021678	     -0.11220014	      3.29914151	     -0.24189323	      1.03929601	     -0.01534062	     77.35534759	     -9.62378193	     -6.08333608	     58.90673514	      1.02811648	      0.82637363	     -4.27854441	      0.00000000	    119.30336074	     -1.37259872	      2.22142573	    109.42507365	      1.90982782	     21.20340867	      2.28692108	      0.00000000	     -0.04685028	     -0.03616044	     -1.02882844	     -0.08700566	     -0.04809339	     -1.09313021	     -0.07697033	     -0.08792050	     -1.09313021	     -0.05354519	     -0.08792050	     -0.90022488	     -0.04350517	     -0.07373838	     -0.83592311	     -0.02677025	     -0.05601253	     -0.77162133	     -0.33464689	     -0.40905418	     -5.72203512	      0.00000000	      0.00000000	     -0.00000000	      0.00000000	      0.00000000	     76.94950608	     -9.91131862	     31.12104522	     27.86743154	     34.18994925	      0.00000000	      5.00000014	     76.95635683	     -9.64345254	     25.31160360	     29.14571054	     41.34922073	      0.00000000	      5.00000014
     13.02500000	    -43.18701341	     -0.11510134	      2.97066243	     -0.24279628	      1.03938455	     -0.01502492	     77.87008319	     -9.42756470	     -5.83558773	     61.01018910	      1.06482868	      1.25302855	     -4.46755743	      0.00000000	    119.20564969	     -1.53022820	      2.17850144	    107.60981555	      1.87814559	     21.01412500	      2.17954401	      0.00000000	     -0.04551843	     -0.03883949	     -0.96843232	     -0.08453228	     -0.05165652	     -1.02895934	     -0.07478223	     -0.09443433	     -1.02895934	     -0.05202302	     -0.09443433	     -0.84737828	     -0.04226842	     -0.07920148	     -0.78685126	     -0.02600923	     -0.06016237	     -0.72632424	     -0.32513362	     -0.43936005	     -5.38613003	      0.00000000	      0.00000000	     -0.00000000	      0.00000000	      0.00000000	     77.00802184	    -10.00419877	     31.11449399	     27.95955042	     34.18138716	      0.00000000	      5.00000014	     77.03430539	     -9.58601060	     25.16716548	     29.27131331	     41.31919771	      0.00000000	      5.00000014
